# xmcd
# 
# Track frame offsets:
#     150
#     4872
#     17487
#     35656
#     55039
#     65956
#     76576
#     88070
#     101986
#     116762
#     132338
#     148181
#     154614
#     173441
# 
# Disc length: 2359
# 
# Revision: 1
# Processed by: cddbd v1.5.2PL0 Copyright (c) Steve Scherf et al.
# Submitted via: fre:ac v1.0.27
# 
DISCID=b609350e
DTITLE=The Theater Fire - Matter and Light
DYEAR=2008
DGENRE=????
TTITLE0=Beatrice (Dirge)
TTITLE1=It's All The Same
TTITLE2=Uncle Wayne
TTITLE3=Swashbuckler Blues
TTITLE4=Beatrice (Ode)
TTITLE5=Dahl Parts
TTITLE6=Say Yes*
TTITLE7=Coyote
TTITLE8=God Was A Child
TTITLE9=The Testicle Song
TTITLE10=Cease
TTITLE11=Beatrice (Coda)
TTITLE12=It's A Secret
TTITLE13=As To Mouth
EXTD=
EXTT0=
EXTT1=
EXTT2=
EXTT3=
EXTT4=
EXTT5=
EXTT6=
EXTT7=
EXTT8=
EXTT9=
EXTT10=
EXTT11=
EXTT12=
EXTT13=
PLAYORDER=
